Coordinates
version=1
nRows=13
nColumns=38
inDegrees=no

Units are S.I. units (second, meters, Newtons, ...)
If the header above contains a line with 'inDegrees', this indicates whether rotational values are in degrees (yes) or radians (no).

endheader
time	pelvis_tilt	pelvis_list	pelvis_rotation	pelvis_tx	pelvis_ty	pelvis_tz	hip_flexion_r	hip_adduction_r	hip_rotation_r	knee_angle_r	ankle_angle_r	subtalar_angle_r	mtp_angle_r	hip_flexion_l	hip_adduction_l	hip_rotation_l	knee_angle_l	ankle_angle_l	subtalar_angle_l	mtp_angle_l	lumbar_extension	lumbar_bending	lumbar_rotation	arm_flex_r	arm_add_r	arm_rot_r	elbow_flex_r	pro_sup_r	wrist_flex_r	wrist_dev_r	arm_flex_l	arm_add_l	arm_rot_l	elbow_flex_l	pro_sup_l	wrist_flex_l	wrist_dev_l
0	0.407325	1.47803	-1.98357	0.670177	1.9508	0.940628	-0.147065	0.00679151	-0.291759	0.153356	0.191044	0	0	0.335918	-0.158185	-0.387218	0.678231	0.072781	0	0	-0.230361	-0.0167263	0.0295095	0.0588188	-0.380189	0.316013	0.833153	1.32713	0	0	-0.162972	-0.243858	0.209049	0.696103	0.0877815	0	0
0.01	0.434659	1.48009	-2.01278	0.669998	1.94328	0.939566	-0.15554	0.00551119	-0.290566	0.148739	0.196486	0	0	0.337221	-0.148599	-0.406958	0.619512	0.0735033	0	0	-0.229254	-0.0185582	0.0297796	0.062702	-0.382272	0.318773	0.83758	1.33017	0	0	-0.161669	-0.24087	0.209951	0.695802	0.0962583	0	0
0.02	0.467727	1.48198	-2.0475	0.669971	1.93571	0.938416	-0.163368	0.00340704	-0.289173	0.145712	0.202668	0	0	0.337721	-0.137406	-0.425758	0.559374	0.0741976	0	0	-0.228388	-0.0208027	0.030484	0.0652795	-0.383634	0.318642	0.841964	1.33159	0	0	-0.159341	-0.238281	0.213937	0.696302	0.115428	0	0
0.03	0.489052	1.48573	-2.06632	0.670411	1.92839	0.936974	-0.169347	0.00384055	-0.291904	0.143788	0.208893	0	0	0.341956	-0.125961	-0.436288	0.501931	0.0773353	0	0	-0.227059	-0.02028	0.0275702	0.0678399	-0.384386	0.31566	0.845776	1.33264	0	0	-0.155408	-0.236002	0.215047	0.694744	0.110047	0	0
0.04	0.52273	1.48905	-2.09776	0.670967	1.92108	0.935493	-0.174219	0.0026279	-0.295537	0.144107	0.216143	0	0	0.343845	-0.110838	-0.441613	0.439222	0.078607	0	0	-0.225846	-0.0207909	0.0248148	0.0700904	-0.384615	0.311936	0.848891	1.33336	0	0	-0.150771	-0.233936	0.215616	0.692246	0.106519	0	0
0.05	0.57874	1.49139	-2.15197	0.671686	1.91364	0.933996	-0.177965	-0.00145829	-0.30064	0.147	0.225581	0	0	0.341534	-0.0901192	-0.438222	0.367311	0.0758218	0	0	-0.224253	-0.0231551	0.0221407	0.0721739	-0.384416	0.309294	0.850592	1.33714	0	0	-0.145471	-0.231435	0.214089	0.687754	0.103764	0	0
0.06	0.640461	1.49369	-2.21176	0.672526	1.90613	0.93238	-0.180587	-0.00597156	-0.306862	0.15176	0.235932	0	0	0.33687	-0.0674359	-0.424307	0.290947	0.0714698	0	0	-0.222248	-0.0254909	0.0187152	0.0747163	-0.384046	0.30822	0.850872	1.34433	0	0	-0.140436	-0.228681	0.210174	0.683484	0.102772	0	0
0.07	0.699244	1.49566	-2.26826	0.67352	1.89847	0.930703	-0.183259	-0.0105551	-0.31449	0.157855	0.246714	0	0	0.327836	-0.0434093	-0.396025	0.208011	0.0618359	0	0	-0.220364	-0.0272769	0.0146226	0.0771443	-0.383448	0.306795	0.850395	1.35094	0	0	-0.135399	-0.225764	0.205006	0.678843	0.104317	0	0
0.08	0.73827	1.4963	-2.30599	0.674382	1.8905	0.929097	-0.188302	-0.0146971	-0.322166	0.163845	0.257089	0	0	0.309615	-0.019578	-0.350738	0.114512	0.0417577	0	0	-0.219819	-0.0290125	0.011203	0.0796219	-0.382403	0.306204	0.848216	1.35492	0	0	-0.131147	-0.22333	0.201582	0.676324	0.123504	0	0
0.09	0.75135	1.4976	-2.31919	0.674981	1.88207	0.927368	-0.195543	-0.0162351	-0.326107	0.167588	0.266166	0	0	0.28703	-0.00177068	-0.298369	0.0214745	0.0150353	0	0	-0.218814	-0.0293881	0.00950132	0.0810956	-0.380947	0.306167	0.844987	1.35463	0	0	-0.127839	-0.222609	0.199007	0.674208	0.113985	0	0
0.1	0.75313	1.50064	-2.31815	0.675309	1.87409	0.925274	-0.20044	-0.0110054	-0.32072	0.171822	0.270587	0	0	0.294595	0.00198923	-0.281056	0	0.0126461	0	0	-0.217969	-0.0289619	0.0067476	0.0825094	-0.378608	0.308102	0.840584	1.35496	0	0	-0.124112	-0.223453	0.198172	0.673769	0.116256	0	0
0.11	0.74964	1.50348	-2.31269	0.675625	1.86592	0.923314	-0.206908	-0.00889696	-0.322686	0.175974	0.278188	0	0	0.308778	0.00235137	-0.276929	0	0.0168482	0	0	-0.217541	-0.0285607	0.00353823	0.0846052	-0.375563	0.31181	0.834639	1.35665	0	0	-0.120583	-0.224424	0.195882	0.672408	0.119359	0	0
0.12	0.732651	1.50579	-2.29277	0.676107	1.8576	0.92144	-0.214143	-0.00670711	-0.327714	0.181351	0.285646	0	0	0.319981	0.00322936	-0.270358	0	0.0218748	0	0	-0.218069	-0.027673	-0.0012631	0.0871003	-0.372233	0.315311	0.827818	1.35819	0	0	-0.116637	-0.225709	0.194023	0.671038	0.122677	0	0
